<mxfile host="Electron" modified="2024-01-22T15:08:38.030Z" agent="Mozilla/5.0 (X11; Linux x86_64) AppleWebKit/537.36 (KHTML, like Gecko) draw.io/21.6.5 Chrome/114.0.5735.243 Electron/25.3.1 Safari/537.36" etag="HukLrGX99fu3mtvXA6T9" version="21.6.5" type="device">
  <diagram name="第 1 页" id="V3ZLgNQ4UihPFzSJVqWv">
    <mxGraphModel dx="2261" dy="879" grid="1" gridSize="10" guides="1" tooltips="1" connect="1" arrows="1" fold="1" page="1" pageScale="1" pageWidth="827" pageHeight="1169" math="0" shadow="0">
      <root>
        <mxCell id="0" />
        <mxCell id="1" parent="0" />
        <mxCell id="uKQusk521EhnRiOU_Lvk-1" value="&lt;h1 style=&quot;font-size: 18px&quot;&gt;&lt;font style=&quot;font-size: 18px&quot;&gt;Dubbo Proxy 工作原理（3.2.9）&lt;/font&gt;&lt;/h1&gt;&lt;div&gt;Dubbo中默认借助字节码编程框架&lt;b&gt;Javasist&lt;/b&gt;实现动态代理，代码位于dubbo-common/org/apache/dubbo/common/bytecode。&lt;br&gt;&lt;/div&gt;&lt;div&gt;代码比较简单只有1K多行。&lt;/div&gt;&lt;div&gt;以官方单元测试 ProxyTest 为例分析其实现原理。&lt;/div&gt;&lt;p&gt;&lt;/p&gt;" style="text;html=1;strokeColor=none;fillColor=none;spacing=5;spacingTop=-20;whiteSpace=wrap;overflow=hidden;rounded=0;" vertex="1" parent="1">
          <mxGeometry x="40" y="10" width="680" height="90" as="geometry" />
        </mxCell>
        <mxCell id="uKQusk521EhnRiOU_Lvk-2" value="&lt;div style=&quot;text-align: center;&quot;&gt;&lt;b&gt;Proxy&lt;/b&gt;&lt;br&gt;&lt;/div&gt;&lt;hr style=&quot;font-size: 10px;&quot;&gt;&lt;p style=&quot;margin: 0px 0px 0px 4px;&quot;&gt;public static final InvocationHandler THROW_UNSUPPORTED_INVOKER = new InvocationHandler() {...};&lt;/p&gt;&lt;p style=&quot;margin: 0px 0px 0px 4px;&quot;&gt;private static final AtomicLong PROXY_CLASS_COUNTER = new AtomicLong(0);&lt;/p&gt;&lt;p style=&quot;margin: 0px 0px 0px 4px;&quot;&gt;&lt;font color=&quot;#007fff&quot;&gt;//代理类缓存， classloader -&amp;gt; interfaceName -&amp;gt; Proxy对象&lt;/font&gt;&lt;/p&gt;&lt;p style=&quot;margin: 0px 0px 0px 4px;&quot;&gt;private static final Map&amp;lt;ClassLoader, Map&amp;lt;String, Proxy&amp;gt;&amp;gt; &lt;b&gt;PROXY_CACHE_MAP&lt;/b&gt; = new WeakHashMap&amp;lt;&amp;gt;();&lt;/p&gt;&lt;p style=&quot;margin: 0px 0px 0px 4px;&quot;&gt;&lt;br&gt;&lt;/p&gt;&lt;p style=&quot;margin: 0px 0px 0px 4px;&quot;&gt;&lt;font color=&quot;#007fff&quot;&gt;//生成的代理类加载后的Class对象&lt;/font&gt;&lt;/p&gt;&lt;p style=&quot;margin: 0px 0px 0px 4px;&quot;&gt;private final Class&amp;lt;?&amp;gt; &lt;b&gt;classToCreate&lt;/b&gt;;&lt;/p&gt;&lt;hr style=&quot;font-size: 10px;&quot;&gt;&lt;p style=&quot;margin: 0px 0px 0px 4px;&quot;&gt;public Class&amp;lt;?&amp;gt; getClassToCreate()&lt;br&gt;&lt;/p&gt;&lt;p style=&quot;margin: 0px 0px 0px 4px;&quot;&gt;public Object newInstance(InvocationHandler handler)&lt;br&gt;&lt;/p&gt;&lt;p style=&quot;margin: 0px 0px 0px 4px;&quot;&gt;public Object newInstance()&lt;br&gt;&lt;/p&gt;&lt;p style=&quot;margin: 0px 0px 0px 4px;&quot;&gt;&lt;font color=&quot;#007fff&quot;&gt;//通过接口生成代理类并加载&lt;/font&gt;&lt;/p&gt;&lt;p style=&quot;margin: 0px 0px 0px 4px;&quot;&gt;public static Proxy getProxy(Class&amp;lt;?&amp;gt;... ics)&lt;br&gt;&lt;/p&gt;" style="verticalAlign=top;align=left;overflow=fill;fontSize=10;fontFamily=Helvetica;html=1;whiteSpace=wrap;" vertex="1" parent="1">
          <mxGeometry x="-560" y="120" width="520" height="180" as="geometry" />
        </mxCell>
        <mxCell id="uKQusk521EhnRiOU_Lvk-5" value="" style="edgeStyle=orthogonalEdgeStyle;rounded=1;orthogonalLoop=1;jettySize=auto;html=1;fontSize=10;" edge="1" parent="1" source="uKQusk521EhnRiOU_Lvk-3" target="uKQusk521EhnRiOU_Lvk-4">
          <mxGeometry relative="1" as="geometry" />
        </mxCell>
        <mxCell id="uKQusk521EhnRiOU_Lvk-11" value="" style="edgeStyle=orthogonalEdgeStyle;rounded=1;orthogonalLoop=1;jettySize=auto;html=1;fontSize=10;" edge="1" parent="1" source="uKQusk521EhnRiOU_Lvk-3" target="uKQusk521EhnRiOU_Lvk-10">
          <mxGeometry relative="1" as="geometry" />
        </mxCell>
        <mxCell id="uKQusk521EhnRiOU_Lvk-3" value="Proxy proxy = Proxy.&lt;b style=&quot;font-size: 10px;&quot;&gt;getProxy&lt;/b&gt;(&lt;br style=&quot;font-size: 10px;&quot;&gt;ITest.class, ITest.class);" style="rounded=1;whiteSpace=wrap;html=1;fontSize=10;" vertex="1" parent="1">
          <mxGeometry x="40" y="120" width="200" height="60" as="geometry" />
        </mxCell>
        <mxCell id="uKQusk521EhnRiOU_Lvk-7" value="" style="edgeStyle=orthogonalEdgeStyle;rounded=1;orthogonalLoop=1;jettySize=auto;html=1;fontSize=10;" edge="1" parent="1" source="uKQusk521EhnRiOU_Lvk-4" target="uKQusk521EhnRiOU_Lvk-6">
          <mxGeometry relative="1" as="geometry" />
        </mxCell>
        <mxCell id="uKQusk521EhnRiOU_Lvk-73" value="" style="edgeStyle=orthogonalEdgeStyle;rounded=0;orthogonalLoop=1;jettySize=auto;html=1;" edge="1" parent="1" source="uKQusk521EhnRiOU_Lvk-4" target="uKQusk521EhnRiOU_Lvk-72">
          <mxGeometry relative="1" as="geometry" />
        </mxCell>
        <mxCell id="uKQusk521EhnRiOU_Lvk-4" value="ITest instance = (ITest) proxy.&lt;b style=&quot;font-size: 10px;&quot;&gt;newInstance&lt;/b&gt;(...);" style="rounded=1;whiteSpace=wrap;html=1;fontSize=10;" vertex="1" parent="1">
          <mxGeometry x="40" y="840" width="200" height="60" as="geometry" />
        </mxCell>
        <mxCell id="uKQusk521EhnRiOU_Lvk-9" value="" style="edgeStyle=orthogonalEdgeStyle;rounded=1;orthogonalLoop=1;jettySize=auto;html=1;fontSize=10;" edge="1" parent="1" source="uKQusk521EhnRiOU_Lvk-6" target="uKQusk521EhnRiOU_Lvk-8">
          <mxGeometry relative="1" as="geometry" />
        </mxCell>
        <mxCell id="uKQusk521EhnRiOU_Lvk-6" value="instance.getName()" style="rounded=1;whiteSpace=wrap;html=1;fontSize=10;" vertex="1" parent="1">
          <mxGeometry x="40" y="920" width="200" height="60" as="geometry" />
        </mxCell>
        <mxCell id="uKQusk521EhnRiOU_Lvk-8" value="instance.setName(&quot;qianlei&quot;, &quot;hello&quot;)" style="rounded=1;whiteSpace=wrap;html=1;fontSize=10;" vertex="1" parent="1">
          <mxGeometry x="40" y="1000" width="200" height="60" as="geometry" />
        </mxCell>
        <mxCell id="uKQusk521EhnRiOU_Lvk-13" value="" style="edgeStyle=orthogonalEdgeStyle;rounded=1;orthogonalLoop=1;jettySize=auto;html=1;fontSize=10;" edge="1" parent="1" source="uKQusk521EhnRiOU_Lvk-10" target="uKQusk521EhnRiOU_Lvk-12">
          <mxGeometry relative="1" as="geometry" />
        </mxCell>
        <mxCell id="uKQusk521EhnRiOU_Lvk-10" value="ClassLoader cl = ics[0].getClassLoader();&lt;br style=&quot;font-size: 10px;&quot;&gt;ProtectionDomain domain = ics[0].getProtectionDomain();" style="rounded=1;whiteSpace=wrap;html=1;fontSize=10;" vertex="1" parent="1">
          <mxGeometry x="280" y="120" width="200" height="60" as="geometry" />
        </mxCell>
        <mxCell id="uKQusk521EhnRiOU_Lvk-15" value="" style="edgeStyle=orthogonalEdgeStyle;rounded=1;orthogonalLoop=1;jettySize=auto;html=1;fontSize=10;" edge="1" parent="1" source="uKQusk521EhnRiOU_Lvk-12" target="uKQusk521EhnRiOU_Lvk-14">
          <mxGeometry relative="1" as="geometry" />
        </mxCell>
        <mxCell id="uKQusk521EhnRiOU_Lvk-28" value="" style="edgeStyle=orthogonalEdgeStyle;rounded=1;orthogonalLoop=1;jettySize=auto;html=1;" edge="1" parent="1" source="uKQusk521EhnRiOU_Lvk-12" target="uKQusk521EhnRiOU_Lvk-27">
          <mxGeometry relative="1" as="geometry" />
        </mxCell>
        <mxCell id="uKQusk521EhnRiOU_Lvk-12" value="String key = buildInterfacesKey(cl, ics);&lt;br style=&quot;font-size: 10px;&quot;&gt;&lt;font style=&quot;font-size: 10px;&quot; color=&quot;#007fff&quot;&gt;检查所有接口类是否都是由第一个接口类的类加载器所加载，是的话，返回所有接口类名字，以分号分割，不是直接抛异常&lt;/font&gt;" style="rounded=1;whiteSpace=wrap;html=1;fontSize=10;fillColor=#dae8fc;strokeColor=#6c8ebf;" vertex="1" parent="1">
          <mxGeometry x="280" y="200" width="200" height="60" as="geometry" />
        </mxCell>
        <mxCell id="uKQusk521EhnRiOU_Lvk-20" style="edgeStyle=orthogonalEdgeStyle;rounded=1;orthogonalLoop=1;jettySize=auto;html=1;exitX=0.5;exitY=1;exitDx=0;exitDy=0;fontSize=10;" edge="1" parent="1" source="uKQusk521EhnRiOU_Lvk-14" target="uKQusk521EhnRiOU_Lvk-17">
          <mxGeometry relative="1" as="geometry" />
        </mxCell>
        <mxCell id="uKQusk521EhnRiOU_Lvk-14" value="for (Class&amp;lt;?&amp;gt; ic : ics) start" style="rounded=1;whiteSpace=wrap;html=1;fontSize=10;" vertex="1" parent="1">
          <mxGeometry x="520" y="215" width="200" height="30" as="geometry" />
        </mxCell>
        <mxCell id="uKQusk521EhnRiOU_Lvk-26" style="edgeStyle=orthogonalEdgeStyle;rounded=1;orthogonalLoop=1;jettySize=auto;html=1;exitX=0.5;exitY=1;exitDx=0;exitDy=0;fontSize=10;" edge="1" parent="1" source="uKQusk521EhnRiOU_Lvk-16" target="uKQusk521EhnRiOU_Lvk-24">
          <mxGeometry relative="1" as="geometry" />
        </mxCell>
        <mxCell id="uKQusk521EhnRiOU_Lvk-16" value="for end" style="rounded=1;whiteSpace=wrap;html=1;fontSize=10;" vertex="1" parent="1">
          <mxGeometry x="520" y="520" width="200" height="30" as="geometry" />
        </mxCell>
        <mxCell id="uKQusk521EhnRiOU_Lvk-19" value="" style="edgeStyle=orthogonalEdgeStyle;rounded=1;orthogonalLoop=1;jettySize=auto;html=1;fontSize=10;" edge="1" parent="1" source="uKQusk521EhnRiOU_Lvk-17" target="uKQusk521EhnRiOU_Lvk-18">
          <mxGeometry relative="1" as="geometry" />
        </mxCell>
        <mxCell id="uKQusk521EhnRiOU_Lvk-17" value="String itf = ic.getName();&lt;br style=&quot;font-size: 10px;&quot;&gt;tmp = Class.&lt;b&gt;forName&lt;/b&gt;(itf, false, cl);&lt;br&gt;&lt;font color=&quot;#007fff&quot;&gt;原理：同一个类加载器加载同一个类获取的实例是相同的&lt;/font&gt;" style="rounded=1;whiteSpace=wrap;html=1;fontSize=10;" vertex="1" parent="1">
          <mxGeometry x="520" y="280" width="200" height="60" as="geometry" />
        </mxCell>
        <mxCell id="uKQusk521EhnRiOU_Lvk-23" style="edgeStyle=orthogonalEdgeStyle;rounded=1;orthogonalLoop=1;jettySize=auto;html=1;exitX=0.5;exitY=1;exitDx=0;exitDy=0;fontSize=10;" edge="1" parent="1" source="uKQusk521EhnRiOU_Lvk-18" target="uKQusk521EhnRiOU_Lvk-22">
          <mxGeometry relative="1" as="geometry" />
        </mxCell>
        <mxCell id="uKQusk521EhnRiOU_Lvk-18" value="&lt;div style=&quot;font-size: 10px;&quot;&gt;if (tmp != ic)&lt;/div&gt;&lt;div style=&quot;font-size: 10px;&quot;&gt;throw new IllegalArgumentException(ic + &quot; is not visible from class loader&quot;);&lt;/div&gt;&lt;div style=&quot;font-size: 10px;&quot;&gt;&lt;font color=&quot;#007fff&quot;&gt;类不同直接抛异常&lt;/font&gt;&lt;/div&gt;" style="rounded=1;whiteSpace=wrap;html=1;fontSize=10;" vertex="1" parent="1">
          <mxGeometry x="520" y="360" width="200" height="60" as="geometry" />
        </mxCell>
        <mxCell id="uKQusk521EhnRiOU_Lvk-25" style="edgeStyle=orthogonalEdgeStyle;rounded=1;orthogonalLoop=1;jettySize=auto;html=1;exitX=0.5;exitY=1;exitDx=0;exitDy=0;fontSize=10;" edge="1" parent="1" source="uKQusk521EhnRiOU_Lvk-22" target="uKQusk521EhnRiOU_Lvk-16">
          <mxGeometry relative="1" as="geometry" />
        </mxCell>
        <mxCell id="uKQusk521EhnRiOU_Lvk-22" value="sb.append(itf).append(&#39;;&#39;);" style="rounded=1;whiteSpace=wrap;html=1;fontSize=10;" vertex="1" parent="1">
          <mxGeometry x="520" y="440" width="200" height="60" as="geometry" />
        </mxCell>
        <mxCell id="uKQusk521EhnRiOU_Lvk-24" value="return sb.toString();" style="rounded=1;whiteSpace=wrap;html=1;fontSize=10;" vertex="1" parent="1">
          <mxGeometry x="520" y="570" width="200" height="60" as="geometry" />
        </mxCell>
        <mxCell id="uKQusk521EhnRiOU_Lvk-30" value="" style="edgeStyle=orthogonalEdgeStyle;rounded=1;orthogonalLoop=1;jettySize=auto;html=1;" edge="1" parent="1" source="uKQusk521EhnRiOU_Lvk-27" target="uKQusk521EhnRiOU_Lvk-29">
          <mxGeometry relative="1" as="geometry" />
        </mxCell>
        <mxCell id="uKQusk521EhnRiOU_Lvk-27" value="&lt;font style=&quot;&quot;&gt;&amp;nbsp;&lt;b&gt;cache&lt;/b&gt; = PROXY_CACHE_MAP&lt;br&gt;.computeIfAbsent(cl, k -&amp;gt; new ConcurrentHashMap&amp;lt;&amp;gt;());&lt;br&gt;Proxy proxy = &lt;b&gt;cache&lt;/b&gt;.get(key);&lt;br&gt;&lt;font color=&quot;#007fff&quot;&gt;先从缓存中获取&lt;/font&gt;&lt;br&gt;&lt;/font&gt;" style="rounded=1;whiteSpace=wrap;html=1;fontSize=10;" vertex="1" parent="1">
          <mxGeometry x="280" y="280" width="200" height="60" as="geometry" />
        </mxCell>
        <mxCell id="uKQusk521EhnRiOU_Lvk-32" value="" style="edgeStyle=orthogonalEdgeStyle;rounded=1;orthogonalLoop=1;jettySize=auto;html=1;" edge="1" parent="1" source="uKQusk521EhnRiOU_Lvk-29" target="uKQusk521EhnRiOU_Lvk-31">
          <mxGeometry relative="1" as="geometry" />
        </mxCell>
        <mxCell id="uKQusk521EhnRiOU_Lvk-34" value="" style="edgeStyle=orthogonalEdgeStyle;rounded=1;orthogonalLoop=1;jettySize=auto;html=1;" edge="1" parent="1" source="uKQusk521EhnRiOU_Lvk-29" target="uKQusk521EhnRiOU_Lvk-33">
          <mxGeometry relative="1" as="geometry" />
        </mxCell>
        <mxCell id="uKQusk521EhnRiOU_Lvk-29" value="&lt;font style=&quot;&quot;&gt;&amp;nbsp;proxy = new Proxy(buildProxyClass(cl, ics, domain));&lt;br&gt;cache.put(key, proxy);&lt;br&gt;&lt;font color=&quot;#007fff&quot;&gt;proxy不存在则synchronized双重检查锁同步下创建&lt;/font&gt;&lt;br&gt;&lt;/font&gt;" style="rounded=1;whiteSpace=wrap;html=1;fontSize=10;fillColor=#dae8fc;strokeColor=#6c8ebf;" vertex="1" parent="1">
          <mxGeometry x="280" y="660" width="200" height="60" as="geometry" />
        </mxCell>
        <mxCell id="uKQusk521EhnRiOU_Lvk-31" value="&lt;font style=&quot;&quot;&gt;return proxy;&lt;br&gt;&lt;/font&gt;" style="rounded=1;whiteSpace=wrap;html=1;fontSize=10;" vertex="1" parent="1">
          <mxGeometry x="280" y="740" width="200" height="60" as="geometry" />
        </mxCell>
        <mxCell id="uKQusk521EhnRiOU_Lvk-36" value="" style="edgeStyle=orthogonalEdgeStyle;rounded=1;orthogonalLoop=1;jettySize=auto;html=1;" edge="1" parent="1" source="uKQusk521EhnRiOU_Lvk-33" target="uKQusk521EhnRiOU_Lvk-35">
          <mxGeometry relative="1" as="geometry">
            <Array as="points">
              <mxPoint x="780" y="690" />
              <mxPoint x="780" y="230" />
            </Array>
          </mxGeometry>
        </mxCell>
        <mxCell id="uKQusk521EhnRiOU_Lvk-33" value="&lt;font style=&quot;&quot;&gt;buildProxyClass(ClassLoader cl, Class&amp;lt;?&amp;gt;[] ics, ProtectionDomain domain)&lt;br&gt;&lt;/font&gt;" style="rounded=1;whiteSpace=wrap;html=1;fontSize=10;fillColor=#fff2cc;strokeColor=#d6b656;" vertex="1" parent="1">
          <mxGeometry x="520" y="660" width="200" height="60" as="geometry" />
        </mxCell>
        <mxCell id="uKQusk521EhnRiOU_Lvk-38" value="" style="edgeStyle=orthogonalEdgeStyle;rounded=1;orthogonalLoop=1;jettySize=auto;html=1;" edge="1" parent="1" source="uKQusk521EhnRiOU_Lvk-55" target="uKQusk521EhnRiOU_Lvk-37">
          <mxGeometry relative="1" as="geometry" />
        </mxCell>
        <mxCell id="uKQusk521EhnRiOU_Lvk-62" value="" style="edgeStyle=orthogonalEdgeStyle;rounded=0;orthogonalLoop=1;jettySize=auto;html=1;" edge="1" parent="1" source="uKQusk521EhnRiOU_Lvk-35" target="uKQusk521EhnRiOU_Lvk-61">
          <mxGeometry relative="1" as="geometry" />
        </mxCell>
        <mxCell id="uKQusk521EhnRiOU_Lvk-35" value="&lt;font style=&quot;&quot;&gt;ccp = ClassGenerator.newInstance(cl);&lt;br&gt;&lt;font color=&quot;#007fff&quot;&gt;创建Class生成器&lt;/font&gt;&lt;br&gt;&lt;/font&gt;" style="rounded=1;whiteSpace=wrap;html=1;fontSize=10;fillColor=#dae8fc;strokeColor=#6c8ebf;" vertex="1" parent="1">
          <mxGeometry x="800" y="200" width="200" height="60" as="geometry" />
        </mxCell>
        <mxCell id="uKQusk521EhnRiOU_Lvk-41" value="" style="edgeStyle=orthogonalEdgeStyle;rounded=1;orthogonalLoop=1;jettySize=auto;html=1;" edge="1" parent="1" source="uKQusk521EhnRiOU_Lvk-57" target="uKQusk521EhnRiOU_Lvk-40">
          <mxGeometry relative="1" as="geometry" />
        </mxCell>
        <mxCell id="uKQusk521EhnRiOU_Lvk-37" value="&lt;font style=&quot;&quot;&gt;ccp.addField(&quot;public static java.lang.reflect.Method[] methods;&quot;);&lt;br&gt;ccp.addField(&quot;private &quot; + &lt;b&gt;InvocationHandler&lt;/b&gt;.class.getName() + &quot; &lt;b&gt;handler&lt;/b&gt;;&quot;);&lt;br&gt;&lt;font color=&quot;#007fff&quot;&gt;代理类的两个成员字段 methods、handler&lt;/font&gt;&lt;br&gt;&lt;/font&gt;" style="rounded=1;whiteSpace=wrap;html=1;fontSize=10;arcSize=14;fillColor=#fff2cc;strokeColor=#d6b656;" vertex="1" parent="1">
          <mxGeometry x="800" y="650" width="200" height="80" as="geometry" />
        </mxCell>
        <mxCell id="uKQusk521EhnRiOU_Lvk-39" value="&lt;font color=&quot;#007fff&quot; style=&quot;font-size: 10px;&quot;&gt;比如 ITest 的 String getName(); 方法，默认生成的代码:&lt;br&gt;Object[] args = new Object[0]; &lt;br&gt;Object ret = handler.invoke(this, methods[0], args); &lt;br&gt;return (java.lang.String)ret;&lt;br&gt;&lt;/font&gt;" style="text;html=1;align=left;verticalAlign=middle;resizable=0;points=[];autosize=1;strokeColor=none;fillColor=none;" vertex="1" parent="1">
          <mxGeometry x="1005" y="485" width="270" height="70" as="geometry" />
        </mxCell>
        <mxCell id="uKQusk521EhnRiOU_Lvk-43" value="" style="edgeStyle=orthogonalEdgeStyle;rounded=1;orthogonalLoop=1;jettySize=auto;html=1;" edge="1" parent="1" source="uKQusk521EhnRiOU_Lvk-40" target="uKQusk521EhnRiOU_Lvk-42">
          <mxGeometry relative="1" as="geometry" />
        </mxCell>
        <mxCell id="uKQusk521EhnRiOU_Lvk-46" value="" style="edgeStyle=orthogonalEdgeStyle;rounded=1;orthogonalLoop=1;jettySize=auto;html=1;" edge="1" parent="1" source="uKQusk521EhnRiOU_Lvk-40" target="uKQusk521EhnRiOU_Lvk-45">
          <mxGeometry relative="1" as="geometry">
            <Array as="points">
              <mxPoint x="1020" y="860" />
              <mxPoint x="1020" y="730" />
            </Array>
          </mxGeometry>
        </mxCell>
        <mxCell id="uKQusk521EhnRiOU_Lvk-40" value="&lt;font style=&quot;&quot;&gt;Class&amp;lt;?&amp;gt; clazz = ccp.toClass(neighbor, cl, domain);&lt;br&gt;&lt;font color=&quot;#007fff&quot;&gt;加载代理类&lt;/font&gt;&lt;br&gt;&lt;/font&gt;" style="rounded=1;whiteSpace=wrap;html=1;fontSize=10;fillColor=#fff2cc;strokeColor=#d6b656;" vertex="1" parent="1">
          <mxGeometry x="800" y="830" width="200" height="60" as="geometry" />
        </mxCell>
        <mxCell id="uKQusk521EhnRiOU_Lvk-71" value="" style="edgeStyle=orthogonalEdgeStyle;rounded=0;orthogonalLoop=1;jettySize=auto;html=1;" edge="1" parent="1" source="uKQusk521EhnRiOU_Lvk-42" target="uKQusk521EhnRiOU_Lvk-70">
          <mxGeometry relative="1" as="geometry" />
        </mxCell>
        <mxCell id="uKQusk521EhnRiOU_Lvk-42" value="&lt;font style=&quot;&quot;&gt;clazz.getField(&quot;methods&quot;).set(null, methods.toArray(new Method[0]));&lt;br&gt;return clazz;&lt;br&gt;&lt;font color=&quot;#007fff&quot;&gt;将clazz 静态字段methods设置为methods转成的数组，null 即表示对静态字段操作&lt;/font&gt;&lt;br&gt;&lt;/font&gt;" style="rounded=1;whiteSpace=wrap;html=1;fontSize=10;fillColor=#dae8fc;strokeColor=#6c8ebf;" vertex="1" parent="1">
          <mxGeometry x="800" y="910" width="200" height="60" as="geometry" />
        </mxCell>
        <mxCell id="uKQusk521EhnRiOU_Lvk-44" value="&lt;div style=&quot;text-align: center;&quot;&gt;&lt;b&gt;ClassGenerator&lt;/b&gt;&lt;br&gt;&lt;/div&gt;&lt;hr style=&quot;font-size: 10px;&quot;&gt;&lt;p style=&quot;margin: 0px 0px 0px 4px;&quot;&gt;private static final AtomicLong CLASS_NAME_COUNTER = new AtomicLong(0);&lt;/p&gt;&lt;p style=&quot;margin: 0px 0px 0px 4px;&quot;&gt;private static final String SIMPLE_NAME_TAG = &quot;&amp;lt;init&amp;gt;&quot;;&lt;/p&gt;&lt;p style=&quot;margin: 0px 0px 0px 4px;&quot;&gt;&lt;font color=&quot;#007fff&quot;&gt;//缓存&lt;/font&gt;&lt;/p&gt;&lt;p style=&quot;margin: 0px 0px 0px 4px;&quot;&gt;private static final Map&amp;lt;ClassLoader, ClassPool&amp;gt; POOL_MAP = new ConcurrentHashMap&amp;lt;&amp;gt;();&lt;/p&gt;&lt;p style=&quot;margin: 0px 0px 0px 4px;&quot;&gt;&lt;br&gt;&lt;/p&gt;&lt;p style=&quot;margin: 0px 0px 0px 4px;&quot;&gt;&lt;font color=&quot;#007fff&quot;&gt;//ClassPool对象是CtClass对象的容器。一旦创建了CtClass对象，它将永远记录在ClassPool中&lt;/font&gt;&lt;/p&gt;&lt;p style=&quot;margin: 0px 0px 0px 4px;&quot;&gt;private ClassPool mPool;&lt;/p&gt;&lt;p style=&quot;margin: 0px 0px 0px 4px;&quot;&gt;&lt;font color=&quot;#007fff&quot;&gt;//Javasist 为代理类创建的类定义（对应.class文件）&lt;/font&gt;&lt;/p&gt;&lt;p style=&quot;margin: 0px 0px 0px 4px;&quot;&gt;private CtClass mCtc;&lt;/p&gt;&lt;p style=&quot;margin: 0px 0px 0px 4px;&quot;&gt;&lt;font color=&quot;#007fff&quot;&gt;//代理类名称&lt;/font&gt;&lt;/p&gt;&lt;p style=&quot;margin: 0px 0px 0px 4px;&quot;&gt;private String mClassName;&lt;/p&gt;&lt;p style=&quot;margin: 0px 0px 0px 4px;&quot;&gt;&lt;font color=&quot;#007fff&quot;&gt;//继承的父类型&lt;/font&gt;&lt;/p&gt;&lt;p style=&quot;margin: 0px 0px 0px 4px;&quot;&gt;private String mSuperClass;&lt;/p&gt;&lt;p style=&quot;margin: 0px 0px 0px 4px;&quot;&gt;&lt;font color=&quot;#007fff&quot;&gt;//实现的接口类型&lt;/font&gt;&lt;/p&gt;&lt;p style=&quot;margin: 0px 0px 0px 4px;&quot;&gt;private Set&amp;lt;String&amp;gt; mInterfaces;&lt;/p&gt;&lt;p style=&quot;margin: 0px 0px 0px 4px;&quot;&gt;&lt;font color=&quot;#007fff&quot;&gt;//成员字段定义（Java代码段）&lt;/font&gt;&lt;/p&gt;&lt;p style=&quot;margin: 0px 0px 0px 4px;&quot;&gt;private List&amp;lt;String&amp;gt; mFields;&lt;/p&gt;&lt;p style=&quot;margin: 0px 0px 0px 4px;&quot;&gt;&lt;font color=&quot;#007fff&quot;&gt;//构造方法定义（Java代码段）&lt;/font&gt;&lt;/p&gt;&lt;p style=&quot;margin: 0px 0px 0px 4px;&quot;&gt;private List&amp;lt;String&amp;gt; mConstructors;&lt;/p&gt;&lt;p style=&quot;margin: 0px 0px 0px 4px;&quot;&gt;&lt;font color=&quot;#007fff&quot;&gt;//方法定义（Java代码段）&lt;/font&gt;&lt;/p&gt;&lt;p style=&quot;margin: 0px 0px 0px 4px;&quot;&gt;private List&amp;lt;String&amp;gt; mMethods;&lt;/p&gt;&lt;p style=&quot;margin: 0px 0px 0px 4px;&quot;&gt;&lt;font color=&quot;#007fff&quot;&gt;//使用的类加载器&lt;/font&gt;&lt;/p&gt;&lt;p style=&quot;margin: 0px 0px 0px 4px;&quot;&gt;private ClassLoader mClassLoader;&lt;/p&gt;&lt;p style=&quot;margin: 0px 0px 0px 4px;&quot;&gt;private Map&amp;lt;String, Method&amp;gt; mCopyMethods; // &amp;lt;method desc,method instance&amp;gt;&lt;/p&gt;&lt;p style=&quot;margin: 0px 0px 0px 4px;&quot;&gt;private Map&amp;lt;String, Constructor&amp;lt;?&amp;gt;&amp;gt; mCopyConstructors; // &amp;lt;constructor desc,constructor instance&amp;gt;&lt;/p&gt;&lt;p style=&quot;margin: 0px 0px 0px 4px;&quot;&gt;private boolean mDefaultConstructor = false;&lt;/p&gt;&lt;hr style=&quot;font-size: 10px;&quot;&gt;&lt;p style=&quot;margin: 0px 0px 0px 4px; font-size: 10px;&quot;&gt;&lt;br&gt;&lt;/p&gt;" style="verticalAlign=top;align=left;overflow=fill;fontSize=10;fontFamily=Helvetica;html=1;whiteSpace=wrap;" vertex="1" parent="1">
          <mxGeometry x="-560" y="340" width="520" height="360" as="geometry" />
        </mxCell>
        <mxCell id="uKQusk521EhnRiOU_Lvk-66" value="" style="edgeStyle=orthogonalEdgeStyle;rounded=0;orthogonalLoop=1;jettySize=auto;html=1;" edge="1" parent="1" source="uKQusk521EhnRiOU_Lvk-45" target="uKQusk521EhnRiOU_Lvk-65">
          <mxGeometry relative="1" as="geometry" />
        </mxCell>
        <mxCell id="uKQusk521EhnRiOU_Lvk-45" value="&lt;font style=&quot;&quot;&gt;mCtc = mPool.makeClass(mClassName);&lt;br&gt;&lt;font color=&quot;#007fff&quot;&gt;ClassGenerator实例创建时会创建ClassPool实例并存入 POOL_MAP&lt;/font&gt;&lt;br&gt;&lt;/font&gt;" style="rounded=1;whiteSpace=wrap;html=1;fontSize=10;fillColor=#d5e8d4;strokeColor=#82b366;" vertex="1" parent="1">
          <mxGeometry x="1041" y="700" width="200" height="60" as="geometry" />
        </mxCell>
        <mxCell id="uKQusk521EhnRiOU_Lvk-48" value="" style="edgeStyle=orthogonalEdgeStyle;rounded=1;orthogonalLoop=1;jettySize=auto;html=1;" edge="1" parent="1" source="uKQusk521EhnRiOU_Lvk-35" target="uKQusk521EhnRiOU_Lvk-47">
          <mxGeometry relative="1" as="geometry">
            <mxPoint x="900" y="260" as="sourcePoint" />
            <mxPoint x="900" y="430" as="targetPoint" />
          </mxGeometry>
        </mxCell>
        <mxCell id="uKQusk521EhnRiOU_Lvk-47" value="&lt;font style=&quot;&quot;&gt;String pkg = ics[0].getPackage().getName();&lt;br&gt;Class&amp;lt;?&amp;gt; neighbor = ics[0];&lt;br&gt;&lt;font color=&quot;#007fff&quot;&gt;代理类的包信息&lt;/font&gt;&lt;br&gt;&lt;/font&gt;" style="rounded=1;whiteSpace=wrap;html=1;fontSize=10;fillColor=#dae8fc;strokeColor=#6c8ebf;" vertex="1" parent="1">
          <mxGeometry x="800" y="280" width="200" height="60" as="geometry" />
        </mxCell>
        <mxCell id="uKQusk521EhnRiOU_Lvk-50" value="" style="edgeStyle=orthogonalEdgeStyle;rounded=1;orthogonalLoop=1;jettySize=auto;html=1;" edge="1" parent="1" source="uKQusk521EhnRiOU_Lvk-47" target="uKQusk521EhnRiOU_Lvk-49">
          <mxGeometry relative="1" as="geometry">
            <mxPoint x="900" y="340" as="sourcePoint" />
            <mxPoint x="900" y="430" as="targetPoint" />
          </mxGeometry>
        </mxCell>
        <mxCell id="uKQusk521EhnRiOU_Lvk-49" value="&lt;font style=&quot;&quot;&gt;for (Class&amp;lt;?&amp;gt; ic : ics)&lt;br&gt;&lt;/font&gt;" style="rounded=1;whiteSpace=wrap;html=1;fontSize=10;" vertex="1" parent="1">
          <mxGeometry x="800" y="360" width="200" height="30" as="geometry" />
        </mxCell>
        <mxCell id="uKQusk521EhnRiOU_Lvk-52" value="" style="edgeStyle=orthogonalEdgeStyle;rounded=1;orthogonalLoop=1;jettySize=auto;html=1;" edge="1" parent="1" source="uKQusk521EhnRiOU_Lvk-49" target="uKQusk521EhnRiOU_Lvk-51">
          <mxGeometry relative="1" as="geometry">
            <mxPoint x="900" y="390" as="sourcePoint" />
            <mxPoint x="900" y="650" as="targetPoint" />
          </mxGeometry>
        </mxCell>
        <mxCell id="uKQusk521EhnRiOU_Lvk-51" value="&lt;font style=&quot;&quot;&gt;ccp.addInterface(ic);&lt;br&gt;&lt;font color=&quot;#007fff&quot;&gt;代理类实现的接口信息&lt;/font&gt;&lt;br&gt;&lt;/font&gt;" style="rounded=1;whiteSpace=wrap;html=1;fontSize=10;fillColor=#dae8fc;strokeColor=#6c8ebf;" vertex="1" parent="1">
          <mxGeometry x="800" y="410" width="200" height="60" as="geometry" />
        </mxCell>
        <mxCell id="uKQusk521EhnRiOU_Lvk-54" value="" style="edgeStyle=orthogonalEdgeStyle;rounded=1;orthogonalLoop=1;jettySize=auto;html=1;" edge="1" parent="1" source="uKQusk521EhnRiOU_Lvk-51" target="uKQusk521EhnRiOU_Lvk-53">
          <mxGeometry relative="1" as="geometry">
            <mxPoint x="900" y="470" as="sourcePoint" />
            <mxPoint x="900" y="650" as="targetPoint" />
          </mxGeometry>
        </mxCell>
        <mxCell id="uKQusk521EhnRiOU_Lvk-53" value="&lt;font style=&quot;&quot;&gt;遍历ic中定义的所有方法&lt;br&gt;根据Method参数类型和返回值&lt;br&gt;拼接方法实现代码&lt;br&gt;ccp.addMethod(...)&lt;br&gt;&lt;font color=&quot;#007fff&quot;&gt;代理类的接口方法实现&lt;/font&gt;&lt;br&gt;&lt;/font&gt;" style="rounded=1;whiteSpace=wrap;html=1;fontSize=10;fillColor=#dae8fc;strokeColor=#6c8ebf;" vertex="1" parent="1">
          <mxGeometry x="800" y="490" width="200" height="60" as="geometry" />
        </mxCell>
        <mxCell id="uKQusk521EhnRiOU_Lvk-56" value="" style="edgeStyle=orthogonalEdgeStyle;rounded=1;orthogonalLoop=1;jettySize=auto;html=1;" edge="1" parent="1" source="uKQusk521EhnRiOU_Lvk-53" target="uKQusk521EhnRiOU_Lvk-55">
          <mxGeometry relative="1" as="geometry">
            <mxPoint x="900" y="550" as="sourcePoint" />
            <mxPoint x="900" y="660" as="targetPoint" />
          </mxGeometry>
        </mxCell>
        <mxCell id="uKQusk521EhnRiOU_Lvk-55" value="&lt;font style=&quot;font-size: 9px;&quot;&gt;String pcn = neighbor.getName() &lt;br&gt;+ &quot;DubboProxy&quot; + &lt;font style=&quot;font-size: 9px;&quot;&gt;PROXY_CLASS_COUNTER&lt;/font&gt;.getAndIncrement();&lt;br&gt;&lt;font color=&quot;#007fff&quot;&gt;代理类的名称&lt;/font&gt;&lt;br&gt;&lt;/font&gt;" style="rounded=1;whiteSpace=wrap;html=1;fontSize=10;fillColor=#dae8fc;strokeColor=#6c8ebf;" vertex="1" parent="1">
          <mxGeometry x="800" y="570" width="200" height="60" as="geometry" />
        </mxCell>
        <mxCell id="uKQusk521EhnRiOU_Lvk-58" value="" style="edgeStyle=orthogonalEdgeStyle;rounded=1;orthogonalLoop=1;jettySize=auto;html=1;" edge="1" parent="1" source="uKQusk521EhnRiOU_Lvk-37" target="uKQusk521EhnRiOU_Lvk-57">
          <mxGeometry relative="1" as="geometry">
            <mxPoint x="900" y="730" as="sourcePoint" />
            <mxPoint x="900" y="830" as="targetPoint" />
          </mxGeometry>
        </mxCell>
        <mxCell id="uKQusk521EhnRiOU_Lvk-57" value="&lt;font style=&quot;&quot;&gt;&lt;font size=&quot;1&quot;&gt;ccp.addConstructor(Modifier.PUBLIC, new Class&amp;lt;?&amp;gt;[] {&lt;b&gt;InvocationHandler&lt;/b&gt;.class}, new Class&amp;lt;?&amp;gt;[0], &quot;handler=$1;&quot;);&lt;br&gt;&lt;/font&gt;ccp.addDefaultConstructor();&lt;br&gt;&lt;font style=&quot;font-size: 9px;&quot; color=&quot;#007fff&quot;&gt;代理类的构造方法&lt;/font&gt;&lt;br&gt;&lt;/font&gt;" style="rounded=1;whiteSpace=wrap;html=1;fontSize=10;fillColor=#dae8fc;strokeColor=#6c8ebf;" vertex="1" parent="1">
          <mxGeometry x="800" y="750" width="200" height="60" as="geometry" />
        </mxCell>
        <mxCell id="uKQusk521EhnRiOU_Lvk-64" value="" style="edgeStyle=orthogonalEdgeStyle;rounded=0;orthogonalLoop=1;jettySize=auto;html=1;" edge="1" parent="1" source="uKQusk521EhnRiOU_Lvk-61" target="uKQusk521EhnRiOU_Lvk-63">
          <mxGeometry relative="1" as="geometry" />
        </mxCell>
        <mxCell id="uKQusk521EhnRiOU_Lvk-61" value="&lt;font style=&quot;&quot;&gt;getClassPool(loader)&lt;br&gt;&lt;/font&gt;" style="rounded=1;whiteSpace=wrap;html=1;fontSize=10;" vertex="1" parent="1">
          <mxGeometry x="1041" y="200" width="200" height="60" as="geometry" />
        </mxCell>
        <mxCell id="uKQusk521EhnRiOU_Lvk-63" value="&lt;font style=&quot;&quot;&gt;pool = new &lt;b&gt;ClassPool&lt;/b&gt;(true);&lt;br style=&quot;font-size: 8px;&quot;&gt;pool.&lt;b&gt;insertClassPath&lt;/b&gt;(new LoaderClassPath(loader));&lt;br style=&quot;font-size: 8px;&quot;&gt;pool.&lt;b&gt;insertClassPath&lt;/b&gt;(new DubboLoaderClassPath());&lt;br&gt;&lt;b&gt;POOL_MAP&lt;/b&gt;.put(loader, pool);&lt;br style=&quot;font-size: 8px;&quot;&gt;&lt;/font&gt;" style="rounded=1;whiteSpace=wrap;html=1;fontSize=8;fillColor=#d5e8d4;strokeColor=#82b366;" vertex="1" parent="1">
          <mxGeometry x="1280" y="200" width="200" height="60" as="geometry" />
        </mxCell>
        <mxCell id="uKQusk521EhnRiOU_Lvk-69" value="" style="edgeStyle=orthogonalEdgeStyle;rounded=0;orthogonalLoop=1;jettySize=auto;html=1;" edge="1" parent="1" source="uKQusk521EhnRiOU_Lvk-65" target="uKQusk521EhnRiOU_Lvk-68">
          <mxGeometry relative="1" as="geometry" />
        </mxCell>
        <mxCell id="uKQusk521EhnRiOU_Lvk-65" value="&lt;font style=&quot;&quot;&gt;mCtc.&lt;b&gt;setSuperclass&lt;/b&gt;(ctcs);&lt;br style=&quot;font-size: 8px;&quot;&gt;mCtc.&lt;b&gt;addInterface&lt;/b&gt;(mPool.get(DC.class.getName()));&lt;br&gt;for&amp;nbsp;mInterfaces:&lt;br&gt;mCtc.&lt;b&gt;addInterface&lt;/b&gt;(mPool.get(cl));&lt;br&gt;for&amp;nbsp;mFields:&lt;br&gt;mCtc.&lt;b&gt;addField&lt;/b&gt;(&lt;b&gt;CtField&lt;/b&gt;.make(code, mCtc));&lt;br&gt;for&amp;nbsp;mMethods:&lt;br&gt;mCtc.&lt;b&gt;addMethod&lt;/b&gt;(CtNewMethod.make(code, mCtc));&lt;br&gt;mCtc.&lt;b&gt;addConstructor&lt;/b&gt;(CtNewConstructor&lt;br&gt;.defaultConstructor(mCtc));&lt;br&gt;...&lt;br style=&quot;font-size: 8px;&quot;&gt;&lt;/font&gt;" style="rounded=1;whiteSpace=wrap;html=1;fontSize=8;fillColor=#d5e8d4;strokeColor=#82b366;arcSize=8;" vertex="1" parent="1">
          <mxGeometry x="1041" y="780" width="200" height="110" as="geometry" />
        </mxCell>
        <mxCell id="uKQusk521EhnRiOU_Lvk-67" value="&lt;font color=&quot;#007fff&quot;&gt;这里额外加了个ClassGenerator$DC 接口实现&lt;br&gt;只是为了标识动态类&lt;br&gt;&lt;/font&gt;" style="text;html=1;align=left;verticalAlign=middle;resizable=0;points=[];autosize=1;strokeColor=none;fillColor=none;fontSize=10;" vertex="1" parent="1">
          <mxGeometry x="1241" y="790" width="230" height="40" as="geometry" />
        </mxCell>
        <mxCell id="uKQusk521EhnRiOU_Lvk-68" value="&lt;font style=&quot;font-size: 10px;&quot;&gt;return mPool.&lt;b&gt;toClass&lt;/b&gt;(mCtc, neighborClass, loader, pd);&lt;br&gt;&lt;font color=&quot;#007fff&quot;&gt;CtClass代表.class文件，通过toClass() 转成Class对象，其实就是加载类&lt;/font&gt;&lt;br style=&quot;font-size: 10px;&quot;&gt;&lt;/font&gt;" style="rounded=1;whiteSpace=wrap;html=1;fontSize=10;fillColor=#d5e8d4;strokeColor=#82b366;arcSize=15;" vertex="1" parent="1">
          <mxGeometry x="1041" y="910" width="200" height="60" as="geometry" />
        </mxCell>
        <mxCell id="uKQusk521EhnRiOU_Lvk-70" value="&lt;font style=&quot;&quot;&gt;finally:&lt;br&gt;ccp.release();&lt;br&gt;&lt;/font&gt;" style="rounded=1;whiteSpace=wrap;html=1;fontSize=10;" vertex="1" parent="1">
          <mxGeometry x="800" y="990" width="200" height="60" as="geometry" />
        </mxCell>
        <mxCell id="uKQusk521EhnRiOU_Lvk-72" value="constructor = classToCreate.&lt;b&gt;getDeclaredConstructor&lt;/b&gt;(&lt;br&gt;InvocationHandler.class);&lt;br&gt;return constructor.&lt;b&gt;newInstance&lt;/b&gt;(handler);&lt;br&gt;&lt;font color=&quot;#007fff&quot;&gt;通过参数类型为InvocationHandler的public构造器反射实例化&lt;/font&gt;" style="rounded=1;whiteSpace=wrap;html=1;fontSize=10;" vertex="1" parent="1">
          <mxGeometry x="280" y="830" width="200" height="80" as="geometry" />
        </mxCell>
        <mxCell id="uKQusk521EhnRiOU_Lvk-75" value="&lt;div&gt;整个流程分3步：&lt;/div&gt;&lt;div&gt;&lt;b&gt;1 接口类校验&lt;/b&gt;&lt;/div&gt;&lt;div&gt;&amp;nbsp; &amp;nbsp;需要确保所有接口类都是由第一个接口类的类加载器加载&lt;/div&gt;&lt;div&gt;&lt;b&gt;2 创建代理类CtClass对象并添加包信息、代理类名、方法、字段、构造方法等属性&lt;/b&gt;&lt;/div&gt;&lt;div&gt;&lt;b&gt;3 通过ClassPool加载CtClass对象获取Class对象&lt;/b&gt;&lt;/div&gt;" style="text;html=1;strokeColor=none;fillColor=none;align=left;verticalAlign=top;whiteSpace=wrap;rounded=0;" vertex="1" parent="1">
          <mxGeometry x="760" y="10" width="520" height="90" as="geometry" />
        </mxCell>
        <mxCell id="uKQusk521EhnRiOU_Lvk-77" value="&lt;b&gt;ITest最终生成的代理类:&lt;br&gt;&lt;/b&gt;&lt;div&gt;package org.apache.dubbo.common.bytecode;&lt;/div&gt;&lt;div&gt;&lt;br&gt;&lt;/div&gt;&lt;div&gt;import java.lang.reflect.InvocationHandler;&lt;/div&gt;&lt;div&gt;import java.lang.reflect.Method;&lt;/div&gt;&lt;div&gt;&lt;br&gt;&lt;/div&gt;&lt;div&gt;public class &lt;b&gt;ProxyTest$ITestDubboProxy0&lt;/b&gt; implements ClassGenerator.DC, ProxyTest.ITest {&lt;/div&gt;&lt;div&gt;&amp;nbsp; &amp;nbsp; public static Method[] methods;&lt;/div&gt;&lt;div&gt;&amp;nbsp; &amp;nbsp; private InvocationHandler &lt;b&gt;handler&lt;/b&gt;;&lt;/div&gt;&lt;div&gt;&lt;br&gt;&lt;/div&gt;&lt;div&gt;&amp;nbsp; &amp;nbsp; public String getName() {&lt;/div&gt;&lt;div&gt;&amp;nbsp; &amp;nbsp; &amp;nbsp; &amp;nbsp; Object[] var1 = new Object[0];&lt;/div&gt;&lt;div&gt;&amp;nbsp; &amp;nbsp; &amp;nbsp; &amp;nbsp; Object var2 = this.handler.invoke(this, methods[0], var1);&lt;/div&gt;&lt;div&gt;&amp;nbsp; &amp;nbsp; &amp;nbsp; &amp;nbsp; return (String)var2;&lt;/div&gt;&lt;div&gt;&amp;nbsp; &amp;nbsp; }&lt;/div&gt;&lt;div&gt;&lt;br&gt;&lt;/div&gt;&lt;div&gt;&amp;nbsp; &amp;nbsp; public void setName(String var1, String var2) {&lt;/div&gt;&lt;div&gt;&amp;nbsp; &amp;nbsp; &amp;nbsp; &amp;nbsp; Object[] var3 = new Object[]{var1, var2};&lt;/div&gt;&lt;div&gt;&amp;nbsp; &amp;nbsp; &amp;nbsp; &amp;nbsp; this.handler.invoke(this, methods[1], var3);&lt;/div&gt;&lt;div&gt;&amp;nbsp; &amp;nbsp; }&lt;/div&gt;&lt;div&gt;&lt;br&gt;&lt;/div&gt;&lt;div&gt;&amp;nbsp; &amp;nbsp; public ProxyTest$ITestDubboProxy0() {&lt;/div&gt;&lt;div&gt;&amp;nbsp; &amp;nbsp; }&lt;/div&gt;&lt;div&gt;&lt;br&gt;&lt;/div&gt;&lt;div&gt;&amp;nbsp; &amp;nbsp; public ProxyTest$ITestDubboProxy0(InvocationHandler var1) {&lt;/div&gt;&lt;div&gt;&amp;nbsp; &amp;nbsp; &amp;nbsp; &amp;nbsp; this.handler = var1;&lt;/div&gt;&lt;div&gt;&amp;nbsp; &amp;nbsp; }&lt;/div&gt;&lt;div&gt;}&lt;/div&gt;" style="text;html=1;strokeColor=none;fillColor=none;align=left;verticalAlign=top;whiteSpace=wrap;rounded=0;fontColor=#007FFF;" vertex="1" parent="1">
          <mxGeometry x="-560" y="720" width="520" height="420" as="geometry" />
        </mxCell>
      </root>
    </mxGraphModel>
  </diagram>
</mxfile>
